<svg id="eRQ4IiGmrEH1" xmlns="http://www.w3.org/2000/svg" xmlns:xlink="http://www.w3.org/1999/xlink" viewBox="0 0 250 100" shape-rendering="geometricPrecision" text-rendering="geometricPrecision"><g transform="translate(3.447098 0)"><ellipse rx="28.7298" ry="28.4778" transform="translate(227.873 28.4778)" fill="#d2dbed" stroke-width="0"/><ellipse rx="24.5716" ry="24.1935" transform="translate(199.143 53.2258)" fill="#d2dbed" stroke-width="0"/><ellipse rx="25.2016" ry="23.4375" transform="translate(106.653 82.3336)" fill="#d2dbed" stroke-width="0"/><ellipse rx="28.3518" ry="28.2258" transform="translate(166.255 65.5746)" fill="#d2dbed" stroke-width="0"/><ellipse rx="31.691" ry="32.2581" transform="translate(27.3311 104.133)" fill="#d2dbed" stroke-width="0"/><ellipse rx="27.7218" ry="31.502" transform="matrix(1.23636 0 0 1.032 241.986 44.9093)" fill="#fff" stroke-width="0"/><ellipse rx="23.9415" ry="26.4617" transform="matrix(1 0 0 0.828571 70.3629 93.8004)" fill="#d2dbed" stroke-width="0"/><ellipse rx="19.4052" ry="23.5635" transform="matrix(1 0 0 0.786097 137.903 77.4194)" fill="#d2dbed" stroke-width="0"/><ellipse rx="33.4866" ry="32.0061" transform="translate(116.513 109.425)" fill="#fff" stroke-width="0"/><ellipse rx="34.5262" ry="33.0141" transform="translate(70.3629 122.278)" fill="#fff" stroke-width="0"/><ellipse rx="34.7782" ry="34.7782" transform="translate(27.3311 117.112)" fill="#fff" stroke-width="0"/><ellipse rx="27.2177" ry="27.2177" transform="translate(219.304 68.7248)" fill="#fff" stroke-width="0"/><ellipse rx="25.2016" ry="23.6895" transform="translate(186.542 89.2641)" fill="#fff" stroke-width="0"/><ellipse rx="25.1701" ry="22.6815" transform="translate(157.025 104.133)" fill="#fff" stroke-width="0"/><ellipse rx="29.1709" ry="28.7298" transform="translate(232.472 84.2238)" fill="#fff" stroke-width="0"/></g></svg>
