<svg id="e1e4CTyJftl1" xmlns="http://www.w3.org/2000/svg" xmlns:xlink="http://www.w3.org/1999/xlink" viewBox="0 0 80 50" shape-rendering="geometricPrecision" text-rendering="geometricPrecision"><ellipse rx="7.930179" ry="7.885876" transform="translate(37.430445 48.325348)" fill="#d2dbed" stroke-width="0"/><ellipse rx="8.683324" ry="8.85389" transform="matrix(.64286 0 0 0.62747 42.34804 42.769798)" fill="#d2dbed" stroke-width="0"/><ellipse rx="10.056708" ry="9.126351" transform="matrix(.898152 0 0 1 79.025341 34.556088)" fill="#d2dbed" stroke-width="0"/><ellipse rx="8.063087" ry="7.708665" transform="translate(62.550063 46.701666)" fill="#d2dbed" stroke-width="0"/><ellipse rx="8.506114" ry="8.069733" transform="translate(51.562999 45.283981)" fill="#d2dbed" stroke-width="0"/><ellipse rx="9.082049" ry="9.214957" transform="translate(73.0941 40.785043)" fill="#d2dbed" stroke-width="0"/><ellipse rx="7.62006" ry="7.398546" transform="translate(24.715576 47.011785)" fill="#d2dbed" stroke-width="0"/><ellipse rx="2.259436" ry="1.519585" transform="translate(11.513354 36.729137)" fill="#d2dbed" stroke-width="0"/><ellipse rx="8.43966" ry="7.21469" transform="matrix(.858267 0 0 1 15.434167 42.424242)" fill="#d2dbed" stroke-width="0"/><ellipse rx="8.616871" ry="7.575758" transform="matrix(.696655 0 0 0.759356 5.510368 38.993001)" fill="#d2dbed" stroke-width="0"/><ellipse rx="8.616871" ry="7.575758" transform="matrix(.696655 0 0 0.759356 0 32.258994)" fill="#d2dbed" stroke-width="0"/><ellipse rx="8.616871" ry="7.575758" transform="matrix(.696655 0 0 0.759356 1.700337 46.192169)" fill="#d2dbed" stroke-width="0"/><ellipse rx="8.616871" ry="7.575758" transform="matrix(1.251928 0 0 0.759356 10.649478 48.657634)" fill="#d2dbed" stroke-width="0"/><ellipse rx="4.696084" ry="4.607478" transform="translate(-.138224 35.831994)" fill="#fff" stroke-width="0"/><ellipse rx="4.696084" ry="4.607478" transform="translate(4.696084 40.785043)" fill="#fff" stroke-width="0"/><ellipse rx="4.696084" ry="4.607478" transform="matrix(.603775 0 0 0.403847 9.940636 40.563526)" fill="#fff" stroke-width="0"/><ellipse rx="4.696084" ry="4.607478" transform="matrix(1.311323 0 0 1.168748 19.000532 48.289917)" fill="#fff" stroke-width="0"/><ellipse rx="4.696084" ry="4.607478" transform="matrix(1.471699 0 0 1.000001 26.133264 50.799647)" fill="#fff" stroke-width="0"/><ellipse rx="4.696084" ry="4.607478" transform="matrix(1.650944 0 0 1.42788 35.303916 50.799642)" fill="#fff" stroke-width="0"/><ellipse rx="4.696084" ry="4.607478" transform="matrix(1.132081 0 0 1.155291 41.461962 46.701666)" fill="#fff" stroke-width="0"/><ellipse rx="4.696084" ry="4.607478" transform="matrix(1.849058 0 0 1.176922 49.790892 45.986166)" fill="#fff" stroke-width="0"/><ellipse rx="4.696084" ry="4.607478" transform="translate(60.069113 46.192164)" fill="#fff" stroke-width="0"/><ellipse rx="4.696084" ry="4.607478" transform="translate(65.296805 46.701666)" fill="#fff" stroke-width="0"/><ellipse rx="4.696084" ry="4.607478" transform="matrix(1.896224 0 0 1.828368 73.670024 42.769798)" fill="#fff" stroke-width="0"/><ellipse rx="4.696084" ry="4.607478" transform="matrix(1.696982 0 0 1.647112 80 34.095332)" fill="#fff" stroke-width="0"/><ellipse rx="4.696084" ry="4.607478" transform="translate(13.484856 44.220717)" fill="#fff" stroke-width="0"/><ellipse rx="4.696084" ry="4.607478" transform="matrix(2.080196 0 0 1 7.703323 46.701666)" fill="#fff" stroke-width="0"/><ellipse rx="4.696084" ry="4.607478" transform="matrix(3.358489 0 0 1 56.259083 50)" fill="#fff" stroke-width="0"/><ellipse rx="4.696084" ry="4.607478" transform="translate(-1.306902 43.310288)" fill="#fff" stroke-width="0"/></svg>
