<svg cache-id="36a4930032b847c3ae1ee2b4b5d4253a" id="ev5cnpUDWfZ1" xmlns="http://www.w3.org/2000/svg" xmlns:xlink="http://www.w3.org/1999/xlink" viewBox="0 0 250 100" shape-rendering="geometricPrecision" text-rendering="geometricPrecision"><polygon points="0,-46.242564 16.349215,-16.349215 46.242564,0 16.349215,16.349215 0,46.242564 -16.349215,16.349215 -46.242564,0 -16.349215,-16.349215 0,-46.242564" transform="matrix(0 0.199944-.194799 0 150.618172 21.906225)" fill="#fff" stroke-width="0"/><polygon points="-27.563684,-46.242564 -20.959703,-35.060533 -8.884804,-28.944878 -20.959703,-22.829222 -27.563684,-11.647191 -34.167665,-22.829222 -46.242564,-28.944878 -34.167665,-35.060533 -27.563684,-46.242564" transform="matrix(0 0.133841-.144528 0 104.970897 25.595376)" fill="#fff" stroke-width="0"/><polygon points="-6.182955,-46.242564 7.980255,-21.935673 33.876653,-8.641794 7.980255,4.652086 -6.182955,28.958976 -20.346166,4.652086 -46.242564,-8.641794 -20.346166,-21.935673 -6.182955,-46.242564" transform="matrix(0 0.124814-.132976 0 135.461016 64.040467)" fill="#fff" stroke-width="0"/><polygon points="-11.232761,-46.242564 1.145073,-23.012844 23.777041,-10.308088 1.145073,2.396668 -11.232761,25.626388 -23.610595,2.396668 -46.242564,-10.308088 -23.610595,-23.012844 -11.232761,-46.242564" transform="matrix(0 0.199944-.194799 0 104.646237 71.28639)" fill="#fff" stroke-width="0"/><polygon points="-28.737663,-46.242564 -22.548746,-34.627704 -11.232761,-28.275326 -22.548746,-21.922948 -28.737663,-10.308088 -34.92658,-21.922948 -46.242564,-28.275326 -34.92658,-34.627704 -28.737663,-46.242564" transform="matrix(0 0.199944-.194799 0 85.818613 59.245881)" fill="#fff" stroke-width="0"/><polygon points="-21.235562,-46.242564 -12.394252,-29.649907 3.77144,-20.575081 -12.394252,-11.500256 -21.235562,5.092402 -30.076872,-11.500256 -46.242564,-20.575081 -30.076872,-29.649907 -21.235562,-46.242564" transform="matrix(0 0.199944-.194799 0 69.956906 43.152148)" fill="#fff" stroke-width="0"/><polygon points="0,-46.242564 16.349215,-16.349215 46.242564,0 16.349215,16.349215 0,46.242564 -16.349215,16.349215 -46.242564,0 -16.349215,-16.349215 0,-46.242564" transform="matrix(0 0.199944-.194799 0 49.956906 21.906225)" fill="#fff" stroke-width="0"/><polygon points="-16.234162,-46.242564 -5.624589,-26.331375 13.774241,-15.441585 -5.624589,-4.551794 -16.234162,15.359395 -26.843734,-4.551794 -46.242564,-15.441585 -26.843734,-26.331375 -16.234162,-46.242564" transform="matrix(0 0.199944-.194799 0 23.532088 36.152148)" fill="#fff" stroke-width="0"/><polygon points="0,-46.242564 16.349215,-16.349215 46.242564,0 16.349215,16.349215 0,46.242564 -16.349215,16.349215 -46.242564,0 -16.349215,-16.349215 0,-46.242564" transform="matrix(0 0.199944-.194799 0 59.956906 78.093777)" fill="#fff" stroke-width="0"/><polygon points="-36.239763,-46.242564 -32.703239,-39.605501 -26.236962,-35.975571 -32.703239,-32.345641 -36.239763,-25.708578 -39.776287,-32.345641 -46.242564,-35.975571 -39.776287,-39.605501 -36.239763,-46.242564" transform="matrix(0 0.199944-.194799 0 35.940896 69.28639)" fill="#fff" stroke-width="0"/><polygon points="-31.238363,-46.242564 -25.933577,-36.28697 -16.234162,-30.842074 -25.933577,-25.397179 -31.238363,-15.441585 -36.543149,-25.397179 -46.242564,-30.842074 -36.543149,-36.28697 -31.238363,-46.242564" transform="matrix(0 0.199944-.194799 0 23.532088 90.585623)" fill="#fff" stroke-width="0"/></svg>
